<?xml version="1.0" encoding="UTF-8"?>
<svg width="128" height="128" version="1.1" viewBox="0 0 128 128" xmlns="http://www.w3.org/2000/svg">
 <rect width="128" height="128" rx="32" ry="32" fill="#dfeefb" stroke-linecap="round" stroke-linejoin="round"/>
 <path d="m66.322 43.685c-9.469 5.6145-11.145 7.2067-10.474 9.8884l.58658 2.2625 3.4357-2.5139c4.3575-3.1005 7.6256-3.0168 7.9608.25139.83798 6.8714-17.513 45.083-21.62 45.083-2.1787 0 .83798-7.3742 4.1899-10.474 1.0056-.92179 2.1787-2.2625 2.5977-3.0167.67038-1.257.41899-1.3407-2.8492-.33519-3.0168.83798-4.1061 1.9274-7.5418 6.8714-6.1173 9.0505-7.2905 18.268-2.5977 20.112 5.782 2.1787 17.513-15 27.151-39.72 1.9274-4.9441 3.7709-9.3853 4.1061-9.7201.92179-.92179 5.6145 18.436 7.7094 31.676.92179 6.0335 1.9274 11.481 2.095 12.151 1.0894 3.1843 17.43-27.569 22.039-41.48 5.3631-16.09 5.1955-24.05-.58659-24.553-2.3463-.25138-3.4357.41899-8.5474 5.4469-5.782 5.6145-6.5362 7.1229-5.1117 9.3016.50279.83798 1.257.50279 3.2681-1.4245 5.3631-5.4469 7.9608-1.8436 5.8658 8.2122-1.1732 5.6982-8.7988 24.888-9.5527 24.134-.1676-.1676-1.257-4.7765-2.3463-10.307-3.7709-18.268-9.8884-35.531-12.486-35.531-.58658 0-3.8548 1.676-7.2905 3.6871z" fill="#008"/>
 <path d="m43.328 16c2.4516 0 4.4394 1.9876 4.4394 4.4393v4.4393h3.2505c.05239-.000933.10477-.000933.15716 0h9.9102c2.4519 0 4.4394 1.9876 4.4394 4.4393 0 2.4518-1.9875 4.4393-4.4394 4.4393h-6.3126c-1.6055 7.4912-4.2052 14.612-7.6533 21.218 1.2908 1.5724 2.6441 3.0915 4.0558 4.5543 1.7028 1.7637 1.6532 4.5743-.11053 6.2772-1.764 1.7025-4.5743 1.6532-6.2771-.11099-.83953-.86964-1.6605-1.7571-2.4623-2.6623-3.9293 5.8391-8.5687 11.158-13.794 15.835-1.8269 1.635-4.6334 1.4796-6.2686-.34716-1.6351-1.8272-1.4796-4.6338.34716-6.2688 5.3854-4.8198 10.073-10.4 13.895-16.57-2.4703-3.5026-4.6809-7.2021-6.6036-11.071-1.0911-2.1956-.19578-4.86 1.9998-5.9511 2.1956-1.0911 4.86-.19578 5.9512 1.9998 1.037 2.0867 2.1679 4.1188 3.3872 6.0908 1.8529-4.1474 3.3422-8.4922 4.4276-12.994h-20.097c-2.4519 0-4.4394-1.9876-4.4394-4.4393 0-2.4518 1.9875-4.4393 4.4394-4.4393h13.318v-4.4393c0-2.4516 1.9875-4.4393 4.4394-4.4393z" fill="#008"/>
</svg>
